<?xml version="1.0" encoding="UTF-8" standalone="no"?>
<!-- Generator: Adobe Illustrator 19.0.0, SVG Export Plug-In . SVG Version: 6.00 Build 0)  -->

<svg
   xmlns:dc="http://purl.org/dc/elements/1.1/"
   xmlns:cc="http://creativecommons.org/ns#"
   xmlns:rdf="http://www.w3.org/1999/02/22-rdf-syntax-ns#"
   xmlns:svg="http://www.w3.org/2000/svg"
   xmlns="http://www.w3.org/2000/svg"
   xmlns:sodipodi="http://sodipodi.sourceforge.net/DTD/sodipodi-0.dtd"
   xmlns:inkscape="http://www.inkscape.org/namespaces/inkscape"
   version="1.1"
   id="Layer_1"
   x="0px"
   y="0px"
   viewBox="0 0 512 512"
   xml:space="preserve"
   sodipodi:docname="danger.svg"
   style="enable-background:new 0 0 512 512;"
   inkscape:version="0.92.2 2405546, 2018-03-11"><metadata
   id="metadata43"><rdf:RDF><cc:Work
       rdf:about=""><dc:format>image/svg+xml</dc:format><dc:type
         rdf:resource="http://purl.org/dc/dcmitype/StillImage" /><dc:title></dc:title></cc:Work></rdf:RDF></metadata><defs
   id="defs41">
		
	</defs><sodipodi:namedview
   pagecolor="#ffffff"
   bordercolor="#666666"
   borderopacity="1"
   objecttolerance="10"
   gridtolerance="10"
   guidetolerance="10"
   inkscape:pageopacity="0"
   inkscape:pageshadow="2"
   inkscape:window-width="1346"
   inkscape:window-height="729"
   id="namedview39"
   showgrid="false"
   inkscape:zoom="0.4609375"
   inkscape:cx="149.58637"
   inkscape:cy="367.7638"
   inkscape:window-x="10"
   inkscape:window-y="10"
   inkscape:window-maximized="0"
   inkscape:current-layer="g6" />
<g
   id="g6">
	<path
   inkscape:connector-curvature="0"
   id="path2"
   d="M 507.494,426.066 282.864,53.537 c -5.677,-9.415 -15.87,-15.172 -26.865,-15.172 -10.995,0 -21.188,5.756 -26.865,15.172 L 4.506,426.066 c -5.842,9.689 -6.015,21.774 -0.451,31.625 5.564,9.852 16.001,15.944 27.315,15.944 h 449.259 c 11.314,0 21.751,-6.093 27.315,-15.944 5.564,-9.852 5.392,-21.936 -0.45,-31.625 z M 256.167,167.227 c 12.901,0 23.817,7.278 23.817,20.178 0,39.363 -4.631,95.929 -4.631,135.292 0,10.255 -11.247,14.554 -19.186,14.554 -10.584,0 -19.516,-4.3 -19.516,-14.554 0,-39.363 -4.63,-95.929 -4.63,-135.292 0,-12.9 10.584,-20.178 24.146,-20.178 z m 0.331,243.791 c -14.554,0 -25.471,-11.908 -25.471,-25.47 0,-13.893 10.916,-25.47 25.471,-25.47 13.562,0 25.14,11.577 25.14,25.47 0,13.562 -11.578,25.47 -25.14,25.47 z"
   style="fill:#ee2125;fill-opacity:0.81568629" />
</g>
<g
   id="g8">
</g>
<g
   id="g10">
</g>
<g
   id="g12">
</g>
<g
   id="g14">
</g>
<g
   id="g16">
</g>
<g
   id="g18">
</g>
<g
   id="g20">
</g>
<g
   id="g22">
</g>
<g
   id="g24">
</g>
<g
   id="g26">
</g>
<g
   id="g28">
</g>
<g
   id="g30">
</g>
<g
   id="g32">
</g>
<g
   id="g34">
</g>
<g
   id="g36">
</g>
</svg>