<?xml version="1.0" encoding="UTF-8" standalone="no"?>
<!-- Created with Inkscape (http://www.inkscape.org/) -->

<svg
   xmlns:dc="http://purl.org/dc/elements/1.1/"
   xmlns:cc="http://creativecommons.org/ns#"
   xmlns:rdf="http://www.w3.org/1999/02/22-rdf-syntax-ns#"
   xmlns:svg="http://www.w3.org/2000/svg"
   xmlns="http://www.w3.org/2000/svg"
   xmlns:sodipodi="http://sodipodi.sourceforge.net/DTD/sodipodi-0.dtd"
   xmlns:inkscape="http://www.inkscape.org/namespaces/inkscape"
   width="2.2554708in"
   height="0.31329015in"
   viewBox="0 0 57.288957 7.9575698"
   version="1.1"
   id="svg6625"
   inkscape:version="0.92.2 2405546, 2018-03-11"
   sodipodi:docname="logo.svg">
  <defs
     id="defs6619" />
  <sodipodi:namedview
     id="base"
     pagecolor="#ffffff"
     bordercolor="#666666"
     borderopacity="1.0"
     inkscape:pageopacity="0.0"
     inkscape:pageshadow="2"
     inkscape:zoom="7.9195959"
     inkscape:cx="97.111192"
     inkscape:cy="-0.62952117"
     inkscape:document-units="mm"
     inkscape:current-layer="layer1"
     showgrid="false"
     inkscape:snap-intersection-paths="true"
     inkscape:snap-bbox="true"
     inkscape:bbox-paths="true"
     inkscape:object-paths="true"
     inkscape:snap-smooth-nodes="false"
     inkscape:snap-midpoints="false"
     inkscape:window-width="1346"
     inkscape:window-height="729"
     inkscape:window-x="10"
     inkscape:window-y="10"
     inkscape:window-maximized="0"
     units="in"
     fit-margin-top="0"
     fit-margin-left="0"
     fit-margin-right="0"
     fit-margin-bottom="0" />
  <metadata
     id="metadata6622">
    <rdf:RDF>
      <cc:Work
         rdf:about="">
        <dc:format>image/svg+xml</dc:format>
        <dc:type
           rdf:resource="http://purl.org/dc/dcmitype/StillImage" />
        <dc:title />
      </cc:Work>
    </rdf:RDF>
  </metadata>
  <g
     inkscape:label="Layer 1"
     inkscape:groupmode="layer"
     id="layer1"
     transform="translate(-67.730534,-132.38799)">
    <path
       style="font-style:normal;font-weight:normal;font-size:10.58333302px;line-height:1.25;font-family:sans-serif;letter-spacing:0px;word-spacing:0px;fill:#214560;fill-opacity:1;stroke:none;stroke-width:0.27325806"
       d="m 123.78396,132.38799 c -0.52465,0.0875 -1.0234,0.26623 -1.49705,0.53584 -0.46636,0.26233 -0.87848,0.61205 -1.23554,1.04927 -0.34976,0.42992 -0.63033,0.93598 -0.84164,1.51893 -0.20404,0.58295 -0.30583,1.23517 -0.30583,1.95657 0,0.48093 0.0658,0.90375 0.19695,1.26809 0.13116,0.36435 0.31333,0.66683 0.54651,0.90731 0.23318,0.24046 0.50644,0.42263 0.81977,0.54651 0.32063,0.11658 0.67035,0.17505 1.04927,0.17505 0.37164,0 0.71014,-0.0658 1.01618,-0.19693 0.31334,-0.13116 0.57929,-0.30995 0.79789,-0.53585 0.21861,-0.2259 0.38617,-0.49183 0.50276,-0.79789 0.12387,-0.30605 0.18626,-0.63724 0.18626,-0.9943 0,-0.37891 -0.055,-0.71402 -0.16438,-1.0055 -0.10931,-0.29148 -0.26224,-0.53603 -0.45899,-0.73278 -0.19674,-0.20404 -0.43347,-0.35697 -0.71036,-0.45899 -0.27691,-0.10204 -0.5794,-0.15264 -0.90731,-0.15264 -0.34976,0 -0.64103,0.0653 -0.87421,0.19641 -0.23317,0.12387 -0.42266,0.27682 -0.5684,0.45898 0.0656,-0.30604 0.1786,-0.60123 0.33892,-0.88542 0.16759,-0.29147 0.36776,-0.5535 0.60094,-0.78669 0.24047,-0.23317 0.51373,-0.43389 0.81977,-0.60148 0.30606,-0.1676 0.64117,-0.28008 1.00551,-0.33837 z m -7.45856,0.0219 -2.49241,2.01101 0.60149,0.81977 0.97241,-0.6666 0.52463,-0.64472 -0.16384,0.74293 v 4.31768 h -1.51947 v 1.20245 h 4.36146 v -1.20245 h -1.48637 v -6.58007 z m -12.34518,0.13129 v 7.65123 h 1.49758 V 136.924 h 0.39335 l 2.26238,3.26843 h 1.84716 l -2.54685,-3.59613 -0.61163,-0.42642 0.59028,-0.41522 2.2293,-3.21346 h -1.70466 l -2.10975,3.23533 -0.34958,0.15317 v -3.3885 z m 5.82649,3.88005 v 1.25688 h 2.74325 v -1.25688 z m 12.63284,0.25138 c 0.80156,0 1.20244,0.40819 1.20244,1.22433 0,0.36434 -0.10909,0.66291 -0.32769,0.8961 -0.21131,0.23317 -0.4885,0.35009 -0.83099,0.35009 -0.21132,0 -0.39349,-0.04 -0.54651,-0.12008 -0.15303,-0.0875 -0.28065,-0.19706 -0.38267,-0.32822 -0.0947,-0.13845 -0.16728,-0.29139 -0.21829,-0.45899 -0.051,-0.17488 -0.0769,-0.34974 -0.0769,-0.52464 v -0.17506 c 0,-0.0582 0.007,-0.12745 0.0219,-0.20761 0.0801,-0.17488 0.21901,-0.32781 0.41576,-0.45898 0.20404,-0.13116 0.45145,-0.19694 0.74292,-0.19694 z"
       id="text4543"
       inkscape:connector-curvature="0" />
    <path
       style="font-style:normal;font-variant:normal;font-weight:bold;font-stretch:normal;font-size:medium;line-height:1.25;font-family:'Nimbus Mono PS';-inkscape-font-specification:'Nimbus Mono PS Bold';letter-spacing:0px;word-spacing:0px;fill:#ee2125;fill-opacity:1;stroke:none;stroke-width:0.21660499"
       d="m 69.081354,132.51833 c -0.742611,7.5e-4 -1.351559,0.61313 -1.350396,1.35547 v 0.0364 h 0.900264 v -0.0372 a 0.45031051,0.45031051 0 0 0 0,-7.5e-4 c -4.26e-4,-0.24405 0.208075,-0.45311 0.451823,-0.45352 h 2.74437 25.86611 l -4.3e-4,-0.90027 H 72.823289 69.082623 69.0822 a 0.45031051,0.45031051 0 0 0 -8.33e-4,0 z m 30.468539,0.047 v 4.2e-4 0.95146 c 0.12426,0.0821 0.22135,0.19926 0.22125,0.35452 a 0.45031051,0.45031051 0 0 0 0,4.2e-4 v 7.6e-4 0.0918 h 0.900267 v -0.0918 -4.2e-4 -7.6e-4 c 2e-4,-0.6606 -0.49179,-1.1915 -1.121517,-1.3064 z m -17.901219,1.34194 v 4.2e-4 c -0.580506,0 -1.144001,0.22528 -1.629191,0.64982 -0.143249,0.12681 -0.265464,0.272 -0.373136,0.4277 -0.289577,0.41877 -0.449709,0.92868 -0.449709,1.47817 0,0.75154 0.319286,1.41057 0.809308,1.87879 0.04429,-0.0233 0.09288,-0.0408 0.132417,-0.0702 0.151281,-0.11283 0.268168,-0.26583 0.357058,-0.41968 0.06025,-0.10435 0.04625,-0.11697 0.0825,-0.20984 -0.274367,-0.30317 -0.445478,-0.72055 -0.445478,-1.17905 0,-0.2667 0.07187,-0.51002 0.175992,-0.73486 0.251035,-0.54209 0.752312,-0.9286 1.340243,-0.9286 0.823094,0 1.516233,0.75369 1.516233,1.64611 0,0.67425 -0.357607,1.24316 -0.86811,1.51455 -0.197994,0.10525 -0.413265,0.17514 -0.648123,0.17514 -0.122005,0 -0.230873,-0.0472 -0.34479,-0.0778 l -0.529669,0.78772 c 0.27093,0.11389 0.563908,0.18192 0.874459,0.18192 0.460842,0 0.869591,-0.17017 1.239978,-0.40275 0.708975,-0.44521 1.212055,-1.21337 1.212055,-2.11824 0,-0.80577 -0.27742,-1.45559 -0.82326,-1.94945 -0.467873,-0.42454 -1.039612,-0.6498 -1.628773,-0.64981 z m 5.724807,0.12099 -2.44443,4.2e-4 c -0.23393,0 -0.29495,0.009 -0.38159,0.0609 -0.13863,0.0866 -0.22507,0.22522 -0.22507,0.38118 0,0.14728 0.0695,0.27718 0.1908,0.36383 0.0953,0.0693 0.19059,0.0867 0.41586,0.0867 h 0.0952 v 3.10186 h -0.0952 c -0.21661,0 -0.29495,0.0172 -0.38159,0.0605 -0.13863,0.0866 -0.22507,0.22522 -0.22507,0.38118 0,0.29458 0.20811,0.45055 0.60666,0.45055 h 4.1155 v -1.29075 c 0,-0.20793 -0.0174,-0.29473 -0.0694,-0.37271 -0.0866,-0.13863 -0.24256,-0.2166 -0.39852,-0.2166 -0.15596,0 -0.28586,0.0693 -0.38117,0.18192 -0.0693,0.0953 -0.0867,0.17347 -0.0867,0.40739 v 0.39853 h -2.1487 v -1.11772 h 0.66716 v 0.0254 c 0,0.20794 0.008,0.28585 0.0605,0.36383 0.0866,0.12996 0.24256,0.2166 0.39852,0.2166 0.14729,0 0.29452,-0.0693 0.38117,-0.18192 0.0693,-0.0953 0.0867,-0.16458 0.0867,-0.39851 v -0.9358 c 0,-0.17328 -0.009,-0.22515 -0.0347,-0.3118 -0.0607,-0.15595 -0.24259,-0.2771 -0.43321,-0.2771 -0.14729,0 -0.28608,0.0693 -0.37271,0.18192 -0.0693,0.0953 -0.0863,0.18171 -0.0863,0.40698 v 0.0262 h -0.66717 v -1.10037 h 1.41344 z m 4.00719,0 -0.8495,4.2e-4 c -0.54584,0 -0.745,0.11285 -0.745,0.44209 0,0.32058 0.21665,0.46769 0.70185,0.45902 v 3.08451 c -0.51985,0.009 -0.70185,0.1302 -0.70185,0.45944 0,0.32057 0.19916,0.44167 0.745,0.44167 h 0.84907 c 0.54585,0 0.74501,-0.1211 0.74501,-0.44167 0,-0.30326 -0.20791,-0.45944 -0.61513,-0.45944 h -0.0432 -0.0432 v -1.24759 h 0.19926 c 0.25992,-0.0174 0.55489,0.24245 0.83215,0.72765 l 0.50217,0.9358 c 0.11263,0.21661 0.23379,0.39853 0.2771,0.41587 0.0433,0.0433 0.25116,0.0689 0.54574,0.0689 h 0.0952 c 0.55451,0 0.75389,-0.1211 0.75389,-0.44167 0,-0.33791 -0.19072,-0.45944 -0.75389,-0.45944 h -0.12988 l -0.48482,-0.90957 c -0.21662,-0.38989 -0.42438,-0.65869 -0.69297,-0.8753 l 0.0347,-0.0605 c 0.027,-0.0346 0.10583,-0.14731 0.15399,-0.21534 l -0.64939,-0.64897 -0.15442,0.22337 c -0.20793,0.2946 -0.26016,0.32895 -0.45944,0.33761 h -0.0689 v -0.93581 c 0.53718,-0.0174 0.70142,-0.12111 0.70142,-0.45902 0,-0.32924 -0.19049,-0.44209 -0.74499,-0.44209 z m -21.751458,4.2e-4 c -0.398551,0 -0.606241,0.15598 -0.606241,0.45056 0,0.25992 0.147307,0.40744 0.450556,0.44209 v 0.34268 h 0.935801 v -0.33422 h 1.73284 v 3.08451 h -0.08673 c -0.407219,0 -0.615123,0.15598 -0.615123,0.45055 0,0.29459 0.207904,0.45056 0.615123,0.45056 h 1.039451 c 0.398551,0 0.606663,-0.15597 0.606663,-0.45056 0,-0.30323 -0.182135,-0.433 -0.624009,-0.44167 v -3.10185 c 0.303249,-0.0346 0.450556,-0.18217 0.450556,-0.44209 0,-0.29458 -0.20769,-0.45056 -0.606241,-0.45056 z m 4.90957,0 c -0.225271,0 -0.294948,0.009 -0.381594,0.0609 -0.138626,0.0866 -0.225068,0.23388 -0.225068,0.38118 0,0.14728 0.07818,0.28585 0.190799,0.36383 0.0953,0.0693 0.190592,0.0867 0.415863,0.0867 h 0.09519 v 0.3981 2.70376 h -0.09519 c -0.216608,0 -0.294948,0.0172 -0.381594,0.0605 -0.138626,0.0866 -0.225068,0.2339 -0.225068,0.38118 0,0.13863 0.07818,0.28585 0.190799,0.36383 0.08664,0.0607 0.216585,0.0867 0.415863,0.0867 h 1.853836 c 0.398549,0 0.606663,-0.1473 0.606663,-0.45055 0,-0.13862 -0.06951,-0.26873 -0.190798,-0.35537 -0.09531,-0.0693 -0.181931,-0.0863 -0.415865,-0.0863 h -0.822846 v -0.76278 h 0.814383 c 0.823104,0 1.256225,-0.14699 1.646114,-0.5542 0.277259,-0.29459 0.442095,-0.69313 0.442095,-1.08302 0,-0.14155 -0.05109,-0.26209 -0.08588,-0.38964 -0.195426,-0.71559 -0.880686,-1.20486 -1.829299,-1.20486 h -0.427285 v 0.89265 h 0.427286 c 0.383545,0 0.65192,0.12639 0.798731,0.3359 0.0754,0.10759 0.128609,0.23044 0.128609,0.38329 0,0.4592 -0.346841,0.72766 -0.92734,0.72766 h -0.987414 v -1.06991 -0.37694 -0.89265 z m 13.379168,0 v 0.89265 0.38118 c 0,0.19927 0.0174,0.29473 0.0694,0.37271 0.0866,0.12996 0.24256,0.2166 0.39852,0.2166 0.14729,0 0.29453,-0.0698 0.38117,-0.18234 0.0693,-0.0953 0.0867,-0.17304 0.0867,-0.40697 v -1.27383 z m 5.80179,0 c -0.52851,0 -0.85782,0.17346 -1.1524,0.60666 l -0.0736,0.10788 0.6477,0.64771 0.18023,-0.27034 c 0.009,-0.0174 0.0517,-0.0693 0.10365,-0.12988 0.0346,0.38122 0.1822,0.53686 0.47678,0.53686 0.32058,0 0.44167,-0.19065 0.44167,-0.70185 v -0.0778 c 0,-0.32924 -0.0176,-0.43309 -0.0783,-0.5284 -0.0953,-0.13862 -0.25116,-0.1908 -0.54575,-0.1908 z m 1.24421,0 v 1.62031 c 0,0.20794 0.0175,0.29473 0.0694,0.37271 0.0866,0.13863 0.24257,0.21661 0.39853,0.21661 0.14728,0 0.28586,-0.0693 0.38117,-0.18192 0.0693,-0.0953 0.0867,-0.16481 0.0867,-0.4074 v -0.72766 h 0.857534 v 0.34945 h 0.93581 v -0.34945 h 0.8753 v 0.72766 c 0,0.20794 0.017,0.29473 0.0689,0.37271 0.0866,0.13863 0.23432,0.21661 0.39894,0.21661 0.1473,0 0.28587,-0.0693 0.38118,-0.18192 0.0693,-0.0953 0.0863,-0.16481 0.0863,-0.4074 v -1.62031 z m -26.783284,0.30629 a 0.45026546,0.45026546 0 0 0 -0.450133,0.45056 0.45026546,0.45026546 0 0 0 0.450133,0.45013 0.45026546,0.45026546 0 0 0 0.450131,-0.45013 0.45026546,0.45026546 0 0 0 -0.450131,-0.45056 z m 31.590476,0.31391 v 3.77452 h 0.900267 v -3.77452 z m -32.040609,1.01196 v 1.46039 1.72396 7.5e-4 a 0.45031051,0.45031051 0 0 0 0,4.3e-4 c 0.0017,0.74042 0.609981,1.34877 1.350397,1.35039 a 0.45031051,0.45031051 0 0 0 8.34e-4,0 h 8.33e-4 l 5.528927,4.3e-4 v -0.90027 h -5.528927 c -0.243429,-4.3e-4 -0.451292,-0.20841 -0.451825,-0.45182 v -2.53749 -0.64686 z m 29.026761,0.15145 v 2.21089 h -0.528394 c -0.22527,0 -0.29454,0.008 -0.38118,0.0605 -0.13863,0.0866 -0.22507,0.2339 -0.22507,0.38117 0,0.13865 0.0778,0.28586 0.19038,0.36384 0.0866,0.0607 0.21659,0.0867 0.41587,0.0867 h 2.001484 c 0.39856,0 0.60666,-0.14729 0.60666,-0.45056 0,-0.13861 -0.0696,-0.26873 -0.1908,-0.35536 -0.0953,-0.0693 -0.18193,-0.0863 -0.41586,-0.0863 h -0.53729 v -2.21089 z m -27.283767,0.36806 v 1.84283 c -0.441874,0.009 -0.624009,0.13843 -0.624009,0.44167 0,0.29459 0.208104,0.45056 0.606663,0.45056 h 1.039451 c 0.40721,0 0.615548,-0.15597 0.615548,-0.45056 0,-0.29458 -0.208338,-0.45055 -0.615548,-0.45055 h -0.0863 v -1.83395 z m 11.784665,3.11623 a 0.45026546,0.45026546 0 0 0 -0.450133,0.45013 0.45026546,0.45026546 0 0 0 0.450133,0.45056 0.45026546,0.45026546 0 0 0 0.450556,-0.45056 0.45026546,0.45026546 0 0 0 -0.450556,-0.45013 z m 0.854996,4.3e-4 v 0.90026 h 16.052036 v -0.90026 z"
       id="path4648"
       inkscape:connector-curvature="0" />
  </g>
</svg>
