<?xml version="1.0" encoding="UTF-8" standalone="no"?>
<!-- Created with Inkscape (http://www.inkscape.org/) -->

<svg
   xmlns:dc="http://purl.org/dc/elements/1.1/"
   xmlns:cc="http://creativecommons.org/ns#"
   xmlns:rdf="http://www.w3.org/1999/02/22-rdf-syntax-ns#"
   xmlns:svg="http://www.w3.org/2000/svg"
   xmlns="http://www.w3.org/2000/svg"
   xmlns:sodipodi="http://sodipodi.sourceforge.net/DTD/sodipodi-0.dtd"
   xmlns:inkscape="http://www.inkscape.org/namespaces/inkscape"
   width="400"
   height="300"
   viewBox="0 0 105.83333 79.374999"
   version="1.1"
   id="svg104"
   inkscape:version="0.92.2 2405546, 2018-03-11"
   sodipodi:docname="ogp.svg">
  <defs
     id="defs98" />
  <sodipodi:namedview
     id="base"
     pagecolor="#ffffff"
     bordercolor="#666666"
     borderopacity="1.0"
     inkscape:pageopacity="0.0"
     inkscape:pageshadow="2"
     inkscape:zoom="0.7"
     inkscape:cx="82.341937"
     inkscape:cy="173.04569"
     inkscape:document-units="mm"
     inkscape:current-layer="layer1"
     showgrid="false"
     units="px"
     inkscape:object-paths="false"
     inkscape:snap-intersection-paths="true"
     inkscape:snap-midpoints="true"
     inkscape:snap-bbox="true"
     inkscape:bbox-paths="true"
     inkscape:bbox-nodes="true"
     inkscape:snap-bbox-edge-midpoints="true"
     inkscape:snap-bbox-midpoints="true"
     inkscape:window-width="1346"
     inkscape:window-height="711"
     inkscape:window-x="10"
     inkscape:window-y="28"
     inkscape:window-maximized="0" />
  <metadata
     id="metadata101">
    <rdf:RDF>
      <cc:Work
         rdf:about="">
        <dc:format>image/svg+xml</dc:format>
        <dc:type
           rdf:resource="http://purl.org/dc/dcmitype/StillImage" />
        <dc:title></dc:title>
      </cc:Work>
    </rdf:RDF>
  </metadata>
  <g
     inkscape:label="Layer 1"
     inkscape:groupmode="layer"
     id="layer1"
     transform="translate(0,-217.625)">
    <path
       style="font-style:normal;font-weight:normal;font-size:10.58333302px;line-height:1.25;font-family:sans-serif;letter-spacing:0px;word-spacing:0px;fill:#214560;fill-opacity:1;stroke:none;stroke-width:1.37456369"
       d="m 99.618244,251.15039 c -2.639137,0.44015 -5.147988,1.33921 -7.530544,2.69542 -2.345905,1.31959 -4.418987,3.07879 -6.215155,5.27812 -1.759382,2.16261 -3.170735,4.70824 -4.233629,7.64064 -1.026383,2.93239 -1.538414,6.21324 -1.538414,9.84209 0,2.41921 0.331003,4.5461 0.990721,6.37883 0.65977,1.83278 1.576085,3.35435 2.749045,4.56404 1.172962,1.20956 2.547581,2.12593 4.123717,2.74909 1.612855,0.58643 3.371993,0.88054 5.278075,0.88054 1.869503,0 3.572248,-0.33098 5.111666,-0.99061 1.576248,-0.65978 2.914034,-1.55912 4.013644,-2.69548 1.09963,-1.13633 1.94251,-2.47403 2.52903,-4.01359 0.6231,-1.53952 0.93694,-3.2055 0.93694,-5.00162 0,-1.906 -0.27667,-3.59171 -0.82692,-5.05793 -0.54987,-1.46623 -1.31909,-2.69639 -2.30881,-3.68609 -0.98969,-1.02636 -2.18052,-1.79566 -3.573352,-2.30885 -1.392925,-0.5133 -2.914539,-0.76783 -4.563972,-0.76783 -1.759383,0 -3.22455,0.3285 -4.39751,0.988 -1.172963,0.6231 -2.126152,1.39249 -2.859271,2.30881 0.329998,-1.53948 0.898474,-3.02436 1.704875,-4.45392 0.843017,-1.46616 1.849983,-2.78425 3.022892,-3.95725 1.209628,-1.17292 2.584246,-2.1826 4.123663,-3.02561 1.539626,-0.84309 3.22526,-1.40889 5.058045,-1.70212 z m -37.51858,0.11014 -12.537512,10.11596 3.025609,4.12365 4.891492,-3.35318 2.639084,-3.24311 -0.82416,3.73715 v 21.71912 h -7.643405 v 6.04864 h 21.939406 v -6.04864 H 66.11327 V 251.26053 Z M 0,251.92096 v 38.4878 h 7.5331918 v -16.44099 h 1.9786494 l 11.3804478,16.44109 h 9.291677 l -12.811362,-18.08953 -3.076617,-2.14501 2.969271,-2.08867 11.213997,-16.16459 h -8.574912 l -10.6126769,16.27461 -1.7584743,0.7705 v -17.04511 z m 29.308847,19.51773 v 6.32246 h 13.799308 v -6.32246 z m 63.546684,1.26451 c 4.032024,0 6.048555,2.05332 6.048555,6.15872 0,1.83274 -0.54875,3.33462 -1.648325,4.50763 -1.062946,1.17291 -2.457291,1.76105 -4.18011,1.76105 -1.062998,0 -1.979415,-0.20121 -2.749098,-0.60403 -0.76977,-0.44016 -1.411788,-0.99126 -1.924927,-1.65105 -0.476368,-0.69644 -0.841474,-1.46576 -1.098121,-2.30885 -0.256544,-0.87969 -0.386825,-1.75929 -0.386825,-2.63907 v -0.88061 c 0,-0.29275 0.03517,-0.64112 0.110153,-1.04434 0.402915,-0.87968 1.101673,-1.64897 2.091441,-2.30879 1.026312,-0.65977 2.270858,-0.99066 3.73703,-0.99066 z"
       id="text4543"
       inkscape:connector-curvature="0" />
    <path
       style="font-style:normal;font-variant:normal;font-weight:bold;font-stretch:normal;font-size:medium;line-height:1.25;font-family:'Nimbus Mono PS';-inkscape-font-specification:'Nimbus Mono PS Bold';letter-spacing:0px;word-spacing:0px;fill:#ee2125;fill-opacity:1;stroke:none;stroke-width:0.69591457"
       d="m 4.3399528,223.44584 c -2.3858809,0.002 -4.34232659,1.96988 -4.33859043,4.35489 v 0.11695 H 2.8937563 v -0.11952 a 1.4467702,1.4467702 0 0 0 0,-0.002 c -0.00141,-0.78413 0.6685088,-1.4558 1.4516293,-1.45712 h 8.8171894 83.103363 l -0.0012,-2.89242 H 16.362674 4.344559 4.34315 a 1.4467702,1.4467702 0 0 0 -0.0027,0 z m 97.8901872,0.151 v 0.001 3.05687 c 0.39923,0.26377 0.71115,0.64019 0.71083,1.13901 a 1.4467702,1.4467702 0 0 0 0,0.001 v 0.002 0.29494 h 2.89237 v -0.29494 -0.001 -0.002 c 6.9e-4,-2.12239 -1.57999,-3.82809 -3.6032,-4.19723 z m -57.513549,4.31143 v 0.001 c -1.865065,0 -3.675479,0.72379 -5.234311,2.08776 -0.460233,0.40743 -0.85289,0.87389 -1.198822,1.37413 -0.93036,1.34543 -1.444838,2.98369 -1.444838,4.7491 0,2.41457 1.025813,4.53193 2.600169,6.03627 0.142295,-0.0749 0.298407,-0.13108 0.425432,-0.22554 0.48604,-0.36251 0.861579,-0.85406 1.147167,-1.34836 0.193573,-0.33526 0.148593,-0.37584 0.265058,-0.67417 -0.881494,-0.97408 -1.431245,-2.31504 -1.431245,-3.78809 0,-0.85687 0.230907,-1.63862 0.565432,-2.36098 0.806534,-1.74165 2.41705,-2.98347 4.305971,-2.98347 2.64446,0 4.871396,2.42151 4.871396,5.2887 0,2.16622 -1.14893,3.99403 -2.789088,4.86596 -0.636121,0.33817 -1.32775,0.56272 -2.082308,0.56272 -0.391981,0 -0.741755,-0.15164 -1.10775,-0.24995 l -1.701737,2.53078 c 0.870453,0.36591 1.81174,0.58451 2.809487,0.58451 1.480607,0 2.793846,-0.54676 3.983836,-1.294 2.277815,-1.43039 3.894124,-3.89833 3.894124,-6.80555 0,-2.5888 -0.891302,-4.67656 -2.644992,-6.26324 -1.503195,-1.36398 -3.340094,-2.0877 -5.232968,-2.08773 z m 18.392821,0.38872 -7.853533,0.001 c -0.751577,0 -0.947624,0.0289 -1.225983,0.19566 -0.445395,0.27824 -0.723111,0.7236 -0.723111,1.22467 0,0.47318 0.22329,0.89053 0.613008,1.16892 0.306181,0.22265 0.612332,0.27855 1.336086,0.27855 h 0.305861 v 9.96575 h -0.305861 c -0.695932,0 -0.947624,0.0553 -1.225983,0.19437 -0.445395,0.27822 -0.723111,0.7236 -0.723111,1.22467 0,0.94643 0.668621,1.44754 1.949094,1.44754 h 13.222393 v -4.14696 c 0,-0.66804 -0.05591,-0.94692 -0.22297,-1.19744 -0.278231,-0.44541 -0.779304,-0.69591 -1.280375,-0.69591 -0.501074,0 -0.91842,0.22266 -1.224634,0.58447 -0.22265,0.30619 -0.278553,0.55733 -0.278553,1.30888 v 1.28041 h -6.903403 v -3.59104 h 2.14347 v 0.0816 c 0,0.66808 0.0257,0.91839 0.194376,1.16892 0.27823,0.41754 0.779304,0.6959 1.280376,0.6959 0.473217,0 0.946241,-0.22265 1.224634,-0.58447 0.222649,-0.30619 0.278552,-0.52877 0.278552,-1.28035 v -3.00656 c 0,-0.55672 -0.02892,-0.72336 -0.111485,-1.00176 -0.195019,-0.50104 -0.7794,-0.89029 -1.391829,-0.89029 -0.473218,0 -0.919126,0.22266 -1.197454,0.58449 -0.222648,0.30618 -0.277266,0.58381 -0.277266,1.30756 v 0.0842 h -2.143504 v -3.53526 h 4.541141 z m 12.874413,0 -2.729297,0.001 c -1.753692,0 -2.393558,0.36256 -2.393558,1.42037 0,1.02997 0.696058,1.5026 2.254924,1.47474 v 9.91001 c -1.67019,0.0288 -2.254924,0.4183 -2.254924,1.4761 0,1.02994 0.639866,1.41901 2.393558,1.41901 h 2.727915 c 1.753722,0 2.393589,-0.38907 2.393589,-1.41901 0,-0.97433 -0.667979,-1.4761 -1.976307,-1.4761 h -0.138794 -0.138795 v -4.0083 h 0.640188 c 0.835079,-0.0559 1.782767,0.77895 2.673555,2.33782 l 1.613387,3.00656 c 0.36186,0.69593 0.751127,1.28041 0.890274,1.33612 0.139116,0.13911 0.806934,0.22136 1.753369,0.22136 h 0.305861 c 1.781548,0 2.422118,-0.38906 2.422118,-1.419 0,-1.08565 -0.612745,-1.47611 -2.422118,-1.47611 h -0.417281 l -1.557644,-2.92229 c -0.695963,-1.25265 -1.363459,-2.11626 -2.226393,-2.81218 l 0.111485,-0.19439 c 0.08674,-0.11119 0.340013,-0.47327 0.494743,-0.69185 l -2.086378,-2.08502 -0.496125,0.71765 c -0.668044,0.9465 -0.835849,1.05686 -1.476103,1.08468 h -0.221363 v -3.0066 c 1.725867,-0.0559 2.253541,-0.3891 2.253541,-1.47476 0,-1.05778 -0.612011,-1.42035 -2.393524,-1.42035 z m -69.8836955,0.001 c -1.2804751,0 -1.9477475,0.50114 -1.9477475,1.44756 0,0.83509 0.4732719,1.30905 1.4475584,1.42038 v 1.10096 h 3.0065681 v -1.07379 h 5.5673175 v 9.91001 h -0.27865 c -1.308325,0 -1.976284,0.50114 -1.976284,1.44754 0,0.94645 0.667959,1.44757 1.976284,1.44757 h 3.339578 c 1.280475,0 1.949103,-0.50112 1.949103,-1.44757 0,-0.97424 -0.585167,-1.39116 -2.004832,-1.41901 v -9.96571 c 0.974286,-0.1112 1.447557,-0.58529 1.447557,-1.42038 0,-0.94642 -0.667271,-1.44756 -1.947747,-1.44756 z m 15.7736045,0 c -0.723757,0 -0.947617,0.0289 -1.225996,0.19566 -0.445382,0.27824 -0.723106,0.75142 -0.723106,1.22467 0,0.47318 0.25118,0.91839 0.613005,1.16892 0.306183,0.22265 0.61234,0.27855 1.336097,0.27855 h 0.305828 v 1.27904 8.68671 h -0.305828 c -0.695925,0 -0.947617,0.0553 -1.225996,0.19437 -0.445382,0.27822 -0.723106,0.75149 -0.723106,1.22467 0,0.4454 0.25118,0.91838 0.613005,1.16893 0.27836,0.19501 0.695851,0.27855 1.336097,0.27855 h 5.956056 c 1.280469,0 1.949104,-0.47326 1.949104,-1.44755 0,-0.44535 -0.223324,-0.86338 -0.613001,-1.14174 -0.306214,-0.22265 -0.584513,-0.27725 -1.336103,-0.27725 h -2.643662 v -2.45069 H 27.8026 c 2.644492,0 4.036035,-0.47225 5.288682,-1.78055 0.890785,-0.94647 1.420374,-2.22692 1.420374,-3.47957 0,-0.45477 -0.164142,-0.84204 -0.275917,-1.25183 -0.62787,-2.29907 -2.829492,-3.87102 -5.877224,-3.87102 h -1.372793 v 2.86793 h 1.372797 c 1.232264,0 2.094506,0.40607 2.566185,1.07919 0.242248,0.34568 0.4132,0.74037 0.4132,1.23145 0,1.47533 -1.114342,2.33785 -2.979385,2.33785 h -3.172391 v -3.43744 -1.21105 -2.86793 z m 42.984967,0 v 2.86794 1.22466 c 0,0.64022 0.05591,0.94691 0.22297,1.19745 0.27823,0.41754 0.779304,0.69591 1.280375,0.69591 0.473219,0 0.946276,-0.22427 1.224634,-0.58583 0.22265,-0.30618 0.278552,-0.55594 0.278552,-1.30753 v -4.0926 z m 18.640158,0 c -1.698016,0 -2.756034,0.5573 -3.702468,1.94909 l -0.236464,0.34661 2.080949,2.08097 0.579049,-0.86855 c 0.02892,-0.0559 0.166102,-0.22265 0.333009,-0.41728 0.111167,1.22479 0.585377,1.72484 1.531812,1.72484 1.029968,0 1.419006,-0.61252 1.419006,-2.25493 v -0.2499 c 0,-1.0578 -0.05655,-1.39144 -0.251564,-1.69766 -0.306182,-0.44536 -0.806937,-0.61301 -1.753404,-0.61301 z m 3.997428,0 v 5.20578 c 0,0.66808 0.05624,0.94691 0.22297,1.19746 0.278237,0.44538 0.779338,0.69592 1.280416,0.69592 0.473181,0 0.918417,-0.22265 1.224633,-0.58448 0.222642,-0.30618 0.278555,-0.5295 0.278555,-1.3089 v -2.33784 h 2.755107 v 1.12272 h 3.006597 v -1.12272 h 2.812194 v 2.33784 c 0,0.66808 0.0546,0.94691 0.221362,1.19746 0.278225,0.44538 0.752809,0.69592 1.281719,0.69592 0.47325,0 0.91845,-0.22265 1.22466,-0.58448 0.22265,-0.30618 0.27727,-0.5295 0.27727,-1.3089 v -5.20573 z M 1.4462003,229.28222 A 1.4466255,1.4466255 0 0 0 3.0187742e-7,230.72978 1.4466255,1.4466255 0 0 0 1.4462003,232.17598 a 1.4466255,1.4466255 0 0 0 1.4461941,-1.4462 1.4466255,1.4466255 0 0 0 -1.4461941,-1.44756 z m 101.4947697,1.00853 v 12.12689 h 2.89237 V 230.29075 Z M 3.0187742e-7,233.54201 v 4.69198 5.53879 0.002 a 1.4467702,1.4467702 0 0 0 0,0.001 C 0.00551509,246.15482 1.9597642,248.10934 4.3385943,248.11454 a 1.4467702,1.4467702 0 0 0 0.0027,0 h 0.0027 l 17.7634917,0.001 v -2.89241 H 4.3439496 c -0.7820955,-0.001 -1.4499232,-0.66959 -1.4516363,-1.45161 v -8.15253 -2.07824 z M 93.257991,234.02859 v 7.10322 h -1.697637 c -0.723754,0 -0.946302,0.0257 -1.224668,0.19436 -0.445389,0.27825 -0.723109,0.7515 -0.723109,1.22464 0,0.44546 0.249964,0.91842 0.611659,1.16896 0.278225,0.19501 0.695868,0.27855 1.336118,0.27855 h 6.430427 c 1.28051,0 1.949092,-0.47322 1.949092,-1.44757 0,-0.44533 -0.223604,-0.86338 -0.613009,-1.14172 -0.306182,-0.22264 -0.584513,-0.27726 -1.336083,-0.27726 h -1.726216 v -7.10321 z M 5.5999404,235.2111 v 5.92071 c -1.4196654,0.0288 -2.0048333,0.44474 -2.0048333,1.419 0,0.94646 0.6686027,1.44758 1.9491037,1.44758 h 3.3395776 c 1.3082956,0 1.9776486,-0.50112 1.9776486,-1.44758 0,-0.94644 -0.669353,-1.44753 -1.9776486,-1.44753 H 8.6065212 v -5.89218 z m 37.8621026,10.01192 a 1.4466255,1.4466255 0 0 0 -1.4462,1.44619 1.4466255,1.4466255 0 0 0 1.4462,1.44757 1.4466255,1.4466255 0 0 0 1.447558,-1.44757 1.4466255,1.4466255 0 0 0 -1.447558,-1.44619 z m 2.746956,0.001 v 2.89239 h 51.572432 v -2.89239 z"
       id="path4648"
       inkscape:connector-curvature="0" />
  </g>
</svg>
